<?xml version="1.0" encoding="UTF-8"?>
<svg id="_レイヤー_2" data-name="レイヤー 2" xmlns="http://www.w3.org/2000/svg" viewBox="0 0 24 37.05">
  <defs>
    <style>
      .cls-1 {
        fill: #d83945;
        stroke-width: 0px;
      }
    </style>
  </defs>
  <g id="_2" data-name="ﾑ2">
    <g>
      <path class="cls-1" d="M12,0C5.38,0,0,5.38,0,12c0,3.77,2.21,8.58,3.58,11.32,1.05,2.11,6.94,13.73,8.42,13.73,1.79,0,8.34-13.48,8.34-13.48,1.36-2.79,3.66-7.79,3.66-11.56,0-6.62-5.38-12-12-12h0ZM19.59,11.91c0,4.16-3.38,7.54-7.54,7.54s-7.54-3.38-7.54-7.54,3.38-7.54,7.54-7.54,7.54,3.38,7.54,7.54h0Z"/>
      <g>
        <path class="cls-1" d="M10.26,14.41h-1.51l-.11-.69h-.99l-.12.69h-1.51l1.3-5.41h1.79l1.15,5.41ZM8.47,12.58l-.09-.63s0-.03-.01-.09c0-.05-.03-.25-.07-.61,0-.04-.01-.09-.02-.16,0-.07-.02-.16-.03-.26l-.05-.51s-.01.1-.02.16c0,.06-.02.13-.03.2-.02.14-.03.25-.04.3s-.01.09-.01.1l-.1.66-.15.85h.62Z"/>
        <path class="cls-1" d="M10.69,14.41v-5.41h2.72v1.3h-1.25v.69h1.13v1.3h-1.13v.83h1.25v1.3h-2.72Z"/>
        <path class="cls-1" d="M14.03,14.41v-5.41h1.26c.72,0,1.28.19,1.69.58.53.51.79,1.22.79,2.13s-.22,1.59-.67,2.08c-.38.42-.95.62-1.7.62h-1.37ZM15.49,13.11c.52-.03.79-.48.79-1.35,0-.43-.07-.77-.2-1.02-.13-.25-.31-.38-.54-.38h-.05v2.76Z"/>
      </g>
    </g>
  </g>
</svg>